<svg xmlns="http://www.w3.org/2000/svg" id="icon" viewBox="0 0 32 32"><defs><style>.cls-1{fill:#999}</style></defs><title>receipt-deselected</title><rect width="2" height="2" x="21" y="16" class="cls-1"/><rect width="8" height="2" x="9" y="16" class="cls-1"/><rect width="2" height="2" x="21" y="12" class="cls-1"/><rect width="8" height="2" x="9" y="12" class="cls-1"/><rect width="14" height="2" x="9" y="8" class="cls-1"/><path d="M25,2H7A2,2,0,0,0,5,4V29a1,1,0,0,0,1,1H7a1,1,0,0,0,.8-.4L10,26.67l2.2,2.93a1,1,0,0,0,1.46.14.93.93,0,0,0,.14-.14L16,26.67l2.2,2.93a1,1,0,0,0,1.46.14.93.93,0,0,0,.14-.14L22,26.67l2.2,2.93a1,1,0,0,0,.8.4h1a1,1,0,0,0,1-1V4A2,2,0,0,0,25,2Zm0,25.33L22.8,24.4a1,1,0,0,0-1.46-.14.93.93,0,0,0-.14.14L19,27.33,16.8,24.4a1,1,0,0,0-1.46-.14.93.93,0,0,0-.14.14L13,27.33,10.8,24.4a1,1,0,0,0-1.46-.14.93.93,0,0,0-.14.14L7,27.33V4H25Z" class="cls-1"/></svg>